HIERARCHY
ROOT Hips
{
  OFFSET 5.72205e-005 65.662 3.42586
  CHANNELS 6 Xposition Yposition Zposition Zrotation Xrotation Yrotation
  JOINT Chest
  {
    OFFSET 0 8.7983 -4.7612
    CHANNELS 3 Zrotation Xrotation Yrotation
    JOINT Chest2
    {
      OFFSET 0 8.0291 0.4195
      CHANNELS 3 Zrotation Xrotation Yrotation
      JOINT Chest3
      {
        OFFSET 0 9.9351 -2.2114
        CHANNELS 3 Zrotation Xrotation Yrotation
        JOINT Neck
        {
          OFFSET 0 22.3885 -0.4656
          CHANNELS 3 Zrotation Xrotation Yrotation
          JOINT Head
          {
            OFFSET -0.0001 12.643 3.4389
            CHANNELS 3 Zrotation Xrotation Yrotation
            End Site
            {
              OFFSET 0.0001 17.6655 0.5274
            }
          }
        }
        JOINT LeftCollar
        {
          OFFSET 2.2603 21.606 7.4023
          CHANNELS 3 Zrotation Xrotation Yrotation
          JOINT LeftShoulder
          {
            OFFSET 13.5163 -1.1332 -5.0146
            CHANNELS 3 Zrotation Xrotation Yrotation
            JOINT LeftElbow
            {
              OFFSET -0.0995 -28.05 -0.2431
              CHANNELS 3 Zrotation Xrotation Yrotation
              JOINT LeftWrist
              {
                OFFSET 0.0679 -23.3996 -0.1402
                CHANNELS 3 Zrotation Xrotation Yrotation
                JOINT LeftFinger1
                {
                  OFFSET 0.7932 -9.069 2.5189
                  CHANNELS 3 Zrotation Xrotation Yrotation
                  JOINT LeftFinger11
                  {
                    OFFSET -0.8272 -3.3923 0.5977
                    CHANNELS 3 Zrotation Xrotation Yrotation
                    JOINT LeftFinger12
                    {
                      OFFSET -0.5649 -2.3158 0.4082
                      CHANNELS 3 Zrotation Xrotation Yrotation
                      End Site
                      {
                        OFFSET -0.4919 -1.6479 0.2673
                      }
                    }
                  }
                }
                JOINT LeftFinger2
                {
                  OFFSET 0.9159 -9.2044 0.2193
                  CHANNELS 3 Zrotation Xrotation Yrotation
                  JOINT LeftFinger21
                  {
                    OFFSET 0.0117 -4.1944 -0.0248
                    CHANNELS 3 Zrotation Xrotation Yrotation
                    JOINT LeftFinger22
                    {
                      OFFSET 0.0071 -2.3249 -0.0142
                      CHANNELS 3 Zrotation Xrotation Yrotation
                      End Site
                      {
                        OFFSET -0.1475 -2.0882 0.0028
                      }
                    }
                  }
                }
                JOINT LeftFinger3
                {
                  OFFSET 0.6113 -8.7231 -2.0637
                  CHANNELS 3 Zrotation Xrotation Yrotation
                  JOINT LeftFinger31
                  {
                    OFFSET -0.1927 -3.8059 -0.2383
                    CHANNELS 3 Zrotation Xrotation Yrotation
                    JOINT LeftFinger32
                    {
                      OFFSET -0.1091 -2.1688 -0.1362
                      CHANNELS 3 Zrotation Xrotation Yrotation
                      End Site
                      {
                        OFFSET -0.2358 -1.9176 -0.0906
                      }
                    }
                  }
                }
                JOINT LeftFinger4
                {
                  OFFSET -0.6151 -8.0947 -3.5641
                  CHANNELS 3 Zrotation Xrotation Yrotation
                  JOINT LeftFinger41
                  {
                    OFFSET -0.4882 -2.341 -0.6462
                    CHANNELS 3 Zrotation Xrotation Yrotation
                    JOINT LeftFinger42
                    {
                      OFFSET -0.3575 -1.7167 -0.4742
                      CHANNELS 3 Zrotation Xrotation Yrotation
                      End Site
                      {
                        OFFSET -0.4187 -1.5237 -0.3496
                      }
                    }
                  }
                }
                JOINT LeftFinger0
                {
                  OFFSET -1.42 -1.8761 1.4223
                  CHANNELS 3 Zrotation Xrotation Yrotation
                  JOINT LeftFinger01
                  {
                    OFFSET -1.1471 -3.4929 2.6334
                    CHANNELS 3 Zrotation Xrotation Yrotation
                    JOINT LeftFinger02
                    {
                      OFFSET -0.823 -2.3 1.6571
                      CHANNELS 3 Zrotation Xrotation Yrotation
                      End Site
                      {
                        OFFSET -0.5822 -1.6914 1.1582
                      }
                    }
                  }
                }
              }
            }
          }
        }
        JOINT RightCollar
        {
          OFFSET -2.2603 21.606 7.4023
          CHANNELS 3 Zrotation Xrotation Yrotation
          JOINT RightShoulder
          {
            OFFSET -13.5187 -1.1334 -5.0155
            CHANNELS 3 Zrotation Xrotation Yrotation
            JOINT RightElbow
            {
              OFFSET 0.0994 -28.0499 -0.2431
              CHANNELS 3 Zrotation Xrotation Yrotation
              JOINT RightWrist
              {
                OFFSET -0.0679 -23.3996 -0.1402
                CHANNELS 3 Zrotation Xrotation Yrotation
                JOINT RightFinger1
                {
                  OFFSET -0.7932 -9.0691 2.5189
                  CHANNELS 3 Zrotation Xrotation Yrotation
                  JOINT RightFinger11
                  {
                    OFFSET 0.8272 -3.3923 0.5977
                    CHANNELS 3 Zrotation Xrotation Yrotation
                    JOINT RightFinger12
                    {
                      OFFSET 0.565 -2.3158 0.4082
                      CHANNELS 3 Zrotation Xrotation Yrotation
                      End Site
                      {
                        OFFSET 0.4919 -1.6479 0.2673
                      }
                    }
                  }
                }
                JOINT RightFinger2
                {
                  OFFSET -0.916 -9.2044 0.2193
                  CHANNELS 3 Zrotation Xrotation Yrotation
                  JOINT RightFinger21
                  {
                    OFFSET -0.0117 -4.1944 -0.0248
                    CHANNELS 3 Zrotation Xrotation Yrotation
                    JOINT RightFinger22
                    {
                      OFFSET -0.0071 -2.3249 -0.0142
                      CHANNELS 3 Zrotation Xrotation Yrotation
                      End Site
                      {
                        OFFSET 0.1475 -2.0882 0.0028
                      }
                    }
                  }
                }
                JOINT RightFinger3
                {
                  OFFSET -0.6113 -8.7231 -2.0637
                  CHANNELS 3 Zrotation Xrotation Yrotation
                  JOINT RightFinger31
                  {
                    OFFSET 0.1927 -3.8059 -0.2383
                    CHANNELS 3 Zrotation Xrotation Yrotation
                    JOINT RightFinger32
                    {
                      OFFSET 0.1091 -2.1688 -0.1362
                      CHANNELS 3 Zrotation Xrotation Yrotation
                      End Site
                      {
                        OFFSET 0.2358 -1.9176 -0.0906
                      }
                    }
                  }
                }
                JOINT RightFinger4
                {
                  OFFSET 0.6151 -8.0947 -3.564
                  CHANNELS 3 Zrotation Xrotation Yrotation
                  JOINT RightFinger41
                  {
                    OFFSET 0.4882 -2.341 -0.6462
                    CHANNELS 3 Zrotation Xrotation Yrotation
                    JOINT RightFinger42
                    {
                      OFFSET 0.3574 -1.7166 -0.4742
                      CHANNELS 3 Zrotation Xrotation Yrotation
                      End Site
                      {
                        OFFSET 0.4187 -1.5237 -0.3496
                      }
                    }
                  }
                }
                JOINT RightFinger0
                {
                  OFFSET 1.4199 -1.8761 1.4221
                  CHANNELS 3 Zrotation Xrotation Yrotation
                  JOINT RightFinger01
                  {
                    OFFSET 1.1472 -3.4929 2.6336
                    CHANNELS 3 Zrotation Xrotation Yrotation
                    JOINT RightFinger02
                    {
                      OFFSET 0.8229 -2.3 1.6571
                      CHANNELS 3 Zrotation Xrotation Yrotation
                      End Site
                      {
                        OFFSET 0.5822 -1.6914 1.1582
                      }
                    }
                  }
                }
              }
            }
          }
        }
      }
    }
  }
  JOINT RightHip
  {
    OFFSET -9.412 3.9771 -0.7758
    CHANNELS 3 Zrotation Xrotation Yrotation
    JOINT RightKnee
    {
      OFFSET -0.7531 -40.938 0
      CHANNELS 3 Zrotation Xrotation Yrotation
      JOINT RightAnkle
      {
        OFFSET 0 -40.1986 0
        CHANNELS 3 Zrotation Xrotation Yrotation
        JOINT RightToe
        {
          OFFSET 0 -4.4182 9.239
          CHANNELS 3 Zrotation Xrotation Yrotation
          End Site
          {
            OFFSET 0 0 6.1981
          }
        }
      }
    }
  }
  JOINT LeftHip
  {
    OFFSET 9.4119 3.9773 -0.7758
    CHANNELS 3 Zrotation Xrotation Yrotation
    JOINT LeftKnee
    {
      OFFSET 0.7532 -40.9383 0
      CHANNELS 3 Zrotation Xrotation Yrotation
      JOINT LeftAnkle
      {
        OFFSET 0 -40.1986 0
        CHANNELS 3 Zrotation Xrotation Yrotation
        JOINT LeftToe
        {
          OFFSET 0 -4.4182 9.239
          CHANNELS 3 Zrotation Xrotation Yrotation
          End Site
          {
            OFFSET 0 0 6.1981
          }
        }
      }
    }
  }
}
MOTION
Frames:	5
Frame Time:	0.0333333
-0.667726 59.5177 4.75456 3.24206e-007 -0.448445 9.79843e-008 -0.643453 1.86115 -0.217329 -1.28085 3.7246 -0.414047 -1.28085 3.72461 -0.414048 7.14509 9.32266 -1.20617 -1.12076e-006 11.1631 8.50398e-007 4.59523 3.47621 -17.676 37.1542 -5.67754 21.318 -71.5345 -43.0195 -51.9653 -6.87204 8.43303 0.680804 1.24938e-005 -3.17974e-006 -7.06191e-006 3.53811e-006 -2.10153e-007 -4.32706e-007 8.81445e-006 1.74598e-005 8.48447e-006 1.24938e-005 -3.17974e-006 -7.06191e-006 -0.0128376 0.00233391 8.31366e-005 3.6606e-006 -2.35367e-006 3.15035e-006 1.24938e-005 -3.17974e-006 -7.06191e-006 -0.0160585 0.00302048 0.000868031 -3.18055e-015 -9.54166e-015 -0 1.24938e-005 -3.17974e-006 -7.06191e-006 -0.0126554 0.00314032 0.00283678 1.16767e-005 1.35938e-005 5.11537e-006 1.24938e-005 -3.17974e-006 -7.06191e-006 3.53811e-006 -2.10153e-007 -4.32706e-007 8.81445e-006 1.74598e-005 8.48447e-006 -5.73715 3.28098 11.9787 -36.6653 -7.76601 -17.1563 70.4122 -43.5306 51.3815 8.18608 8.0272 -0.16989 8.55278e-006 5.39989e-006 -7.89081e-006 -0 -9.54166e-015 -0 1.90945e-006 -9.57285e-007 1.58283e-006 8.55278e-006 5.39989e-006 -7.89081e-006 0.0128915 0.00231133 -8.12059e-005 3.18055e-015 -9.54166e-015 -3.18055e-015 8.55278e-006 5.39989e-006 -7.89081e-006 0.0163043 0.00304066 -0.000869743 8.79552e-006 -1.85426e-006 -4.99765e-006 8.55278e-006 5.39989e-006 -7.89081e-006 0.0145886 0.00367651 -0.00326234 -3.18055e-015 6.36111e-015 3.18055e-015 8.55278e-006 5.39989e-006 -7.89081e-006 -0 -9.54166e-015 -0 1.90945e-006 -9.57285e-007 1.58283e-006 -26.974 -22.549 -33.0002 -145.996 46.3972 148.031 6.11686 18.3451 15.7475 3.96897e-006 1.27641e-005 2.40749e-006 23.7505 -20.493 31.8037 146.185 46.2222 -148.211 -4.54545 18.828 -15.0768 -1.0058e-006 -2.31959e-005 -1.52682e-006 
-0.667986 59.4612 4.42272 -6.69615e-007 0.341131 1.4849e-007 -0.642492 1.58553 -0.220139 -1.27961 3.1734 -0.422712 -1.27962 3.17342 -0.422713 7.1991 9.39071 -1.21959 9.89837e-007 11.2454 -1.75876e-007 4.49518 4.05291 -17.5406 37.1543 -5.67762 21.318 -71.9849 -43.0526 -52.295 -6.83502 8.62047 0.502621 0 4.77083e-015 -0 7.60587e-007 -2.88932e-006 2.79464e-006 -6.36111e-015 -6.36111e-015 3.18055e-015 0 4.77083e-015 -0 -0.0128002 0.00231075 8.77464e-005 9.54166e-015 4.77083e-015 6.36111e-015 0 4.77083e-015 -0 -0.0160031 0.0029918 0.000861144 1.66591e-006 1.86885e-007 -1.94375e-006 0 4.77083e-015 -0 -0.0126114 0.00311032 0.00282201 1.11061e-006 -1.26276e-006 -1.29583e-006 0 4.77083e-015 -0 7.60587e-007 -2.88932e-006 2.79464e-006 -6.36111e-015 -6.36111e-015 3.18055e-015 -5.64407 3.85266 11.8343 -36.6653 -7.766 -17.1563 70.8409 -43.5677 51.6965 8.18279 8.1943 0.00963718 -0 -6.36111e-015 -0 6.42266e-006 -6.0875e-006 1.012e-005 3.18055e-015 0 -3.18055e-015 -0 -6.36111e-015 -0 0.0129695 0.00231142 -8.36246e-005 3.18055e-015 9.54166e-015 -3.18055e-015 -0 -6.36111e-015 -0 0.0163529 0.00302335 -0.000867966 7.15659e-006 3.73951e-006 3.15201e-006 -0 -6.36111e-015 -0 0.0145588 0.00366226 -0.00324811 1.04496e-006 1.56132e-005 -7.48914e-007 -0 -6.36111e-015 -0 6.42266e-006 -6.0875e-006 1.012e-005 3.18055e-015 0 -3.18055e-015 -26.8503 -23.7322 -33.1733 -146.306 46.1338 148.229 6.45866 18.3841 15.5901 1.81018e-006 -1.72263e-007 -9.54705e-008 23.6198 -21.6823 31.9564 146.504 45.948 -148.415 -4.85627 18.8602 -14.941 3.18055e-015 -3.18055e-015 1.59028e-015 
-0.66823 59.4061 4.09031 -9.26107e-009 1.13053 1.33727e-007 -0.64141 1.31035 -0.222895 -1.27822 2.62311 -0.431271 -1.27822 2.62312 -0.431271 7.25306 9.45891 -1.23314 3.16028e-007 11.3276 7.26153e-007 4.39363 4.62943 -17.4043 37.1542 -5.67759 21.318 -72.4356 -43.0838 -52.6253 -6.7974 8.80771 0.324162 1.59028e-014 0 3.18055e-015 -3.18055e-015 0 -3.18055e-015 -0 -4.77083e-015 -0 1.59028e-014 0 3.18055e-015 -0.0128207 0.00232649 9.326e-005 6.36111e-015 1.59028e-014 3.18055e-015 1.59028e-014 0 3.18055e-015 -0.0160344 0.00298339 0.000851257 -6.36111e-015 -3.18055e-015 3.18055e-015 1.59028e-014 0 3.18055e-015 -0.0125916 0.00313052 0.00282467 1.59028e-014 0 6.36111e-015 1.59028e-014 0 3.18055e-015 -3.18055e-015 0 -3.18055e-015 -0 -4.77083e-015 -0 -5.54957 4.42418 11.6889 -36.6653 -7.76602 -17.1563 71.2702 -43.6032 52.0121 8.17898 8.36137 0.189224 9.54166e-015 0 -0 6.36111e-015 -6.36111e-015 3.18055e-015 3.18055e-015 3.18055e-015 6.36111e-015 9.54166e-015 0 -0 0.0129409 0.00229009 -7.87909e-005 -6.36111e-015 -3.18055e-015 -6.36111e-015 9.54166e-015 0 -0 0.0163069 0.00302748 -0.000873193 6.36111e-015 6.36111e-015 1.27222e-014 9.54166e-015 0 -0 0.0145615 0.00364781 -0.00325047 0 6.36111e-015 -0 9.54166e-015 0 -0 6.36111e-015 -6.36111e-015 3.18055e-015 3.18055e-015 3.18055e-015 6.36111e-015 -26.7278 -24.915 -33.3452 -146.614 45.8696 148.424 6.8006 18.4216 15.4321 -7.35012e-007 7.2839e-007 -2.22889e-006 23.4902 -22.8708 32.1076 146.821 45.673 -148.614 -5.16709 18.891 -14.8047 -1.83427e-006 -3.03266e-008 -3.3529e-008 
-0.668455 59.3525 3.75736 -4.86635e-007 1.91968 -1.2236e-007 -0.640272 1.03594 -0.225619 -1.27677 2.07433 -0.439749 -1.27677 2.07433 -0.43975 7.30722 9.52672 -1.24663 -1.26821e-006 11.4099 -6.08439e-007 4.29082 5.20525 -17.2667 37.1542 -5.67759 21.318 -72.8868 -43.1131 -52.956 -6.75921 8.99486 0.145528 2.13937e-006 1.59096e-005 1.4779e-006 1.10459e-006 2.81269e-006 -1.30076e-006 -1.10459e-006 -2.81269e-006 1.30076e-006 2.13937e-006 1.59096e-005 1.4779e-006 -0.0128061 0.00231502 7.92999e-005 -3.18055e-015 1.59028e-015 -3.18055e-015 2.13937e-006 1.59096e-005 1.4779e-006 -0.016052 0.00298066 0.000847352 -0 -7.95139e-015 -0 2.13937e-006 1.59096e-005 1.4779e-006 -0.012582 0.00311268 0.00281568 -5.29669e-031 -4.77083e-015 -6.36111e-015 2.13937e-006 1.59096e-005 1.4779e-006 1.10459e-006 2.81269e-006 -1.30076e-006 -1.10459e-006 -2.81269e-006 1.30076e-006 -5.45336 4.99499 11.5425 -36.6653 -7.76598 -17.1563 71.6999 -43.637 52.3283 8.17466 8.52841 0.368912 -3.18055e-015 3.18055e-015 -6.36111e-015 6.93049e-007 9.87883e-007 2.72289e-006 -1.76556e-031 3.18055e-015 3.18055e-015 -3.18055e-015 3.18055e-015 -6.36111e-015 0.0129485 0.00230001 -8.41187e-005 6.92355e-007 2.18899e-006 2.72292e-006 -3.18055e-015 3.18055e-015 -6.36111e-015 0.0163593 0.00304806 -0.000878119 -0 -6.36111e-015 -0 -3.18055e-015 3.18055e-015 -6.36111e-015 0.0146022 0.00369265 -0.00327138 1.22676e-006 8.90158e-007 -1.16555e-006 -3.18055e-015 3.18055e-015 -6.36111e-015 6.93049e-007 9.87883e-007 2.72289e-006 -1.76556e-031 3.18055e-015 3.18055e-015 -26.6066 -26.097 -33.5159 -146.919 45.6045 148.615 7.14265 18.4576 15.2738 1.79044e-006 1.0796e-005 -2.887e-007 23.3614 -24.0585 32.2571 147.134 45.3972 -148.81 -5.47801 18.9206 -14.6681 4.50746e-006 -8.74471e-006 -3.40437e-007 
-0.668663 59.3003 3.42388 2.03911e-009 2.70851 8.48025e-008 -0.638987 0.762343 -0.228274 -1.27511 1.52718 -0.448093 -1.27511 1.52718 -0.448093 7.36123 9.59482 -1.2603 1.61305e-006 11.4922 -8.756e-008 4.18636 5.78099 -17.128 37.1542 -5.67762 21.318 -73.3384 -43.1404 -53.2871 -6.72033 9.18187 -0.0333742 4.70623e-006 -5.00848e-006 -1.95506e-006 6.36111e-015 -3.18055e-015 -3.18055e-015 3.18055e-015 -3.18055e-015 -0 4.70623e-006 -5.00848e-006 -1.95506e-006 -0.0128387 0.0023576 9.50148e-005 -3.18055e-015 1.59028e-015 -6.36111e-015 4.70623e-006 -5.00848e-006 -1.95506e-006 -0.0160421 0.00301558 0.00086725 1.10175e-006 2.62158e-006 -1.30308e-006 4.70623e-006 -5.00848e-006 -1.95506e-006 -0.0125863 0.00313428 0.00283112 9.54166e-015 0 -0 4.70623e-006 -5.00848e-006 -1.95506e-006 6.36111e-015 -3.18055e-015 -3.18055e-015 3.18055e-015 -3.18055e-015 -0 -5.35581 5.56574 11.395 -36.6653 -7.76598 -17.1563 72.1301 -43.669 52.6449 8.16978 8.69541 0.548688 -3.18055e-015 3.18055e-015 -6.36111e-015 -1.25328e-005 1.23717e-005 -4.49577e-006 1.22385e-006 -3.14194e-006 -1.16824e-006 -3.18055e-015 3.18055e-015 -6.36111e-015 0.0129079 0.00232225 -9.05259e-005 -7.06225e-031 1.27222e-014 3.18055e-015 -3.18055e-015 3.18055e-015 -6.36111e-015 0.0163326 0.00305784 -0.000890923 -3.18055e-015 0 -0 -3.18055e-015 3.18055e-015 -6.36111e-015 0.0145841 0.00368536 -0.00326761 -6.98181e-007 -3.38601e-006 -2.7173e-006 -3.18055e-015 3.18055e-015 -6.36111e-015 -1.25328e-005 1.23717e-005 -4.49577e-006 1.22385e-006 -3.14194e-006 -1.16824e-006 -26.4867 -27.2779 -33.6853 -147.221 45.3387 148.802 7.48484 18.4923 15.1149 -5.0687e-006 -3.75612e-006 -4.0781e-006 23.2334 -25.245 32.4051 147.445 45.1204 -149.002 -5.78892 18.9489 -14.531 -1.8344e-006 -3.03955e-008 -3.34097e-008 
